<?xml version="1.0" encoding="UTF-8"?>
<svg version="1.1" xmlns="http://www.w3.org/2000/svg" width="512" height="512">
<path d="M0 0 C0.7686438 -0.00701431 1.5372876 -0.01402863 2.32922363 -0.02125549 C4.80027194 -0.0386671 7.27108007 -0.0451092 9.7421875 -0.046875 C11.01240753 -0.04788712 11.01240753 -0.04788712 12.30828857 -0.04891968 C59.94285885 0.01128039 102.72944107 14.14426495 137.171875 47.69140625 C155.08209446 66.6532934 166.24820273 90.67126849 172.4296875 115.765625 C172.62457764 116.54244629 172.81946777 117.31926758 173.02026367 118.11962891 C175.0266137 126.81174911 175.61382941 135.17290216 176.6171875 144.203125 C144.6071875 144.203125 112.5971875 144.203125 79.6171875 144.203125 C78.6271875 137.273125 77.6371875 130.343125 76.6171875 123.203125 C73.31747335 109.32156894 68.46908644 96.07358681 55.85644531 88.08837891 C36.99638901 77.12267187 12.2202088 73.49695739 -9.0703125 78.890625 C-23.57457608 82.92497102 -35.38541206 91.25225194 -43.3828125 104.203125 C-56.68299422 129.62571857 -59.52532054 159.1389736 -59.55078125 187.41015625 C-59.55401237 188.74655692 -59.55737765 190.08295728 -59.56086731 191.4193573 C-59.56680506 194.2069073 -59.5687131 196.99442657 -59.56811523 199.78198242 C-59.56803451 202.58478321 -59.5748993 205.38741867 -59.58862305 208.19018555 C-60.63517194 266.92157501 -60.63517194 266.92157501 -35.640625 318.13671875 C-28.6175666 324.56439676 -20.47829674 328.59129042 -11.3828125 331.203125 C-10.60292969 331.42871094 -9.82304687 331.65429688 -9.01953125 331.88671875 C10.92001677 336.49793799 35.98406636 333.89927111 53.62109375 323.41796875 C66.95631639 314.29195924 73.15826082 301.68593965 76.6171875 286.203125 C77.2771875 280.593125 77.9371875 274.983125 78.6171875 269.203125 C110.6271875 269.203125 142.6371875 269.203125 175.6171875 269.203125 C174.43871064 288.05875475 174.43871064 288.05875475 172.9921875 294.953125 C172.82033936 295.78110596 172.64849121 296.60908691 172.47143555 297.4621582 C164.87058706 332.03607349 144.79855049 363.41577259 114.83154297 382.83203125 C83.12358279 402.46509678 47.92787179 410.68583129 10.9296875 410.515625 C9.68751968 410.51289078 9.68751968 410.51289078 8.42025757 410.51010132 C-4.69614768 410.46165821 -17.50704652 409.91100706 -30.3828125 407.203125 C-31.18058105 407.03683594 -31.97834961 406.87054688 -32.80029297 406.69921875 C-60.60601204 400.64596808 -86.50451805 387.75883075 -106.3828125 367.203125 C-107.1665625 366.44 -107.9503125 365.676875 -108.7578125 364.890625 C-109.6240625 364.00375 -110.4903125 363.116875 -111.3828125 362.203125 C-112.00542969 361.57664062 -112.62804687 360.95015625 -113.26953125 360.3046875 C-157.42219798 313.85322843 -160.90051035 244.615404 -159.3828125 184.203125 C-158.3271518 150.91391261 -151.8163995 118.32622508 -137.3828125 88.203125 C-137.04636719 87.49978027 -136.70992187 86.79643555 -136.36328125 86.07177734 C-129.14476975 71.25010259 -119.29085415 58.48741489 -108.3828125 46.203125 C-107.80273438 45.54957031 -107.22265625 44.89601562 -106.625 44.22265625 C-97.47016106 34.53876883 -85.93131811 26.68415702 -74.3828125 20.203125 C-73.79338867 19.8721582 -73.20396484 19.54119141 -72.59667969 19.20019531 C-50.65494431 7.07480479 -25.10463736 0.15504802 0 0 Z " fill="#2096F3" transform="translate(247.3828125,50.796875)"/>
</svg>
